<?xml version="1.0" standalone="no"?>
<!DOCTYPE svg PUBLIC "-//W3C//DTD SVG 20010904//EN"
 "http://www.w3.org/TR/2001/REC-SVG-20010904/DTD/svg10.dtd">
<svg version="1.0" xmlns="http://www.w3.org/2000/svg"
 width="117.000000pt" height="100.000000pt" viewBox="0 0 117.000000 100.000000"
 preserveAspectRatio="xMidYMid meet">

<g transform="translate(0.000000,100.000000) scale(0.100000,-0.100000)"
fill="#000000" stroke="none">
<path d="M0 500 l0 -500 585 0 585 0 0 500 0 500 -585 0 -585 0 0 -500z m705
455 c169 -45 307 -182 344 -346 73 -314 -207 -614 -521 -561 -175 30 -305 138
-367 305 -30 81 -30 223 0 304 85 229 318 356 544 298z"/>
<path d="M468 921 c-353 -117 -416 -581 -106 -781 127 -83 288 -93 423 -26
158 78 245 217 245 391 0 175 -87 313 -246 391 -65 33 -84 37 -166 40 -72 3
-106 0 -150 -15z m132 -116 c0 -21 19 -28 36 -14 22 18 25 8 10 -36 l-14 -39
33 -12 c18 -6 46 -21 64 -33 34 -24 85 -104 79 -122 -2 -7 -15 10 -29 37 -15
29 -42 61 -68 79 -39 27 -50 30 -120 30 -69 0 -82 -3 -118 -28 -24 -17 -51
-48 -64 -75 -30 -60 -28 -56 -35 -50 -9 10 33 81 68 115 38 36 73 52 138 62
37 5 46 10 48 29 2 12 -2 22 -9 22 -6 0 -18 8 -25 18 -12 16 -13 16 -19 0 -4
-10 -13 -18 -21 -18 -8 0 -14 -8 -14 -18 0 -14 8 -17 43 -15 l42 2 -45 -8
c-25 -5 -45 -8 -45 -7 0 0 -6 16 -13 35 -13 38 -9 52 10 33 18 -18 28 -15 38
14 10 25 30 25 30 -1z m65 -155 c40 -19 74 -55 88 -93 4 -11 3 -16 -3 -12 -6
3 -10 12 -10 19 0 25 -77 85 -117 91 -64 11 -69 13 -34 14 19 0 53 -8 76 -19z
m-140 -4 c-28 -12 -60 -44 -93 -92 -7 -11 -6 -5 2 12 18 38 80 94 104 94 10
-1 4 -6 -13 -14z m78 -23 c-7 -2 -19 -2 -25 0 -7 3 -2 5 12 5 14 0 19 -2 13
-5z m-63 -7 c0 -2 -7 -7 -16 -10 -8 -3 -12 -2 -9 4 6 10 25 14 25 6z m145 -26
c10 -11 16 -20 13 -20 -3 0 -13 9 -23 20 -10 11 -16 20 -13 20 3 0 13 -9 23
-20z m-357 -36 c27 -18 29 -60 5 -87 -17 -18 -16 -21 39 -72 98 -91 265 -158
343 -137 42 12 75 64 75 119 0 31 -5 45 -16 50 -21 8 -55 -35 -48 -59 4 -13 0
-18 -15 -18 -21 0 -28 14 -12 24 4 3 20 39 36 81 15 41 30 75 34 75 3 0 20
-37 36 -83 40 -108 59 -111 63 -8 2 53 -1 77 -10 82 -8 6 -3 9 17 9 l30 0 -3
-80 -4 -80 28 0 c15 0 36 8 46 17 18 16 18 16 10 -8 -9 -23 -14 -24 -96 -27
-81 -3 -86 -4 -92 -26 -14 -58 -99 -102 -174 -90 -115 18 -262 100 -318 178
-14 20 -31 36 -39 36 -20 0 -17 -70 5 -86 15 -12 12 -13 -25 -14 -24 0 -43 5
-43 10 0 6 5 10 10 10 15 0 13 173 -2 188 -19 19 92 16 120 -4z m206 -55 c35
-41 34 -83 -3 -120 -38 -38 -74 -38 -112 0 -38 38 -39 87 -4 125 35 38 85 36
119 -5z m71 21 c-3 -5 2 -24 10 -41 l17 -31 20 32 c16 26 17 35 6 41 -8 6 -1
9 21 9 30 0 32 -2 19 -12 -46 -37 -74 -128 -46 -156 9 -9 5 -12 -19 -12 -30 0
-31 1 -20 29 9 24 7 37 -7 70 -10 22 -27 49 -38 61 -19 20 -19 20 12 20 18 0
29 -4 25 -10z"/>
<path d="M250 511 c0 -36 3 -41 24 -41 30 0 49 22 44 52 -2 18 -10 24 -35 26
-32 3 -33 2 -33 -37z"/>
<path d="M757 475 c-8 -20 -4 -29 11 -24 5 2 6 13 2 23 -6 19 -7 19 -13 1z"/>
<path d="M437 502 c-10 -11 -17 -35 -17 -60 0 -32 6 -45 26 -61 40 -31 84 -5
84 52 0 71 -55 111 -93 69z"/>
</g>
</svg>
